<?xml version="1.0" encoding="utf-8"?>
<!-- Generator: Adobe Illustrator 22.1.0, SVG Export Plug-In . SVG Version: 6.00 Build 0)  -->
<svg version="1.1" id="Layer_1" xmlns="http://www.w3.org/2000/svg" xmlns:xlink="http://www.w3.org/1999/xlink" x="0px" y="0px"
	 viewBox="0 0 544.7 318.6" style="enable-background:new 0 0 544.7 318.6;" xml:space="preserve">
<g>
	<g>
		<g>
			<path d="M252.3,318.3v-2.2c-1.7,1.7-3.4,2.5-6.2,2.5c-2.6,0-5-0.9-6.6-2.5c-2.7-2.7-2.5-7.4-2.5-11.4c0-4-0.2-8.7,2.5-11.4
				c1.6-1.6,3.9-2.5,6.5-2.5c2.7,0,4.5,0.8,6,2.3v-10.7h8.3v35.8H252.3z M248.7,298.4c-3.1,0-3.4,2.5-3.4,6.4c0,3.9,0.4,6.4,3.4,6.4
				c3.1,0,3.4-2.5,3.4-6.4C252.1,300.8,251.7,298.4,248.7,298.4z"/>
			<path d="M283.7,299.8c-0.8-0.8-1.6-1.4-3-1.4c-1.1,0-3.3,0.7-3.3,3.7v16.2h-8.3v-27.1h8.1v2.2c1.2-1.2,3.6-2.5,6.4-2.5
				c2.7,0,4.5,0.7,6.3,2.5L283.7,299.8z"/>
			<path d="M295.5,288.4v-6.3h8.3v6.3H295.5z M295.5,318.3v-26h8.3v26H295.5z"/>
			<path d="M327.5,318.3v-16.2c0-3.1-2.2-3.7-3.3-3.7c-1.1,0-3.3,0.6-3.3,3.7v16.2h-8.3v-27.1h8.1v2.2c1.7-1.7,4.1-2.5,6.3-2.5
				c2.6,0,4.6,0.9,6.1,2.3c2.3,2.3,2.7,4.9,2.7,7.8v17.3H327.5z"/>
			<path d="M359.7,318.3l-5.6-9.9l-1.6,1.8v8.2h-8.3v-35.8h8.3v18.2l7.3-9.5h9.9l-10,11.2l10.2,15.9H359.7z"/>
			<path d="M384.8,318.6c-4.1,0-8.1-0.2-11.8-3.9l5.3-5.3c2.3,2.3,5.2,2.3,6.6,2.3c1.2,0,3.5-0.4,3.5-1.8c0-0.8-0.4-1.6-2-1.7
				l-4.2-0.4c-4.7-0.5-7.9-2.6-7.9-7.9c0-6,5.4-9,10.8-9c4.4,0,8,0.7,10.7,3.3l-5.1,5.1c-1.4-1.4-3.6-1.6-5.7-1.6
				c-2,0-2.7,1-2.7,1.6c0,0.3-0.1,1.3,1.8,1.5l4.2,0.4c5.7,0.6,8.2,3.9,8.2,8.3C396.5,315.8,391.1,318.6,384.8,318.6z"/>
			<path d="M439.5,318.3l-2.3-2.6c-1.8,1.3-3.7,2.9-8.5,2.9c-8.5,0-12.1-4.2-12.1-11.2c0-4.1,3-7.2,5.7-9c-1.3-1.4-3.4-3.8-3.4-7.4
				c0-5.3,3.7-8.9,10.5-8.9c6.3,0,10,3.7,10,9c0,2.7-1.3,4.5-3.5,6.1c0,0-1.6,1.3-2.5,1.9l4.2,4.9c1-1.2,1.5-3.5,1.7-5.2h7.8
				c-0.4,4.7-1.6,8.4-4.2,11.2l7,8.2H439.5z M426.6,303.4c-1.7,1.2-2.1,2.2-2.1,3.9c0,2.2,2,3.8,4.2,3.8c1.8,0,2.7-0.6,3.5-1.3
				L426.6,303.4z M429.4,289.1c-1.7,0-2.3,0.9-2.3,2.2c0,1.1,1.3,2.3,1.9,2.9c0.5-0.3,1.2-0.9,1.2-0.9c0.9-0.6,1.4-1.3,1.4-2.1
				C431.7,290,430.9,289.1,429.4,289.1z"/>
			<path d="M478.3,298.6v19.7H470v-19.7h-2.5v-6.3h2.5v-2.4c0-3.7,2.4-8,8.4-8h4.4v6.9H480c-1.1,0-1.7,0.6-1.7,1.7v1.8h4.5v6.3
				H478.3z"/>
			<path d="M504.6,318.3v-2.2c-1.7,1.7-4.1,2.5-6.3,2.5c-2.6,0-4.6-0.9-6.1-2.3c-2.3-2.3-2.7-4.9-2.7-7.8v-17.3h8.3v16.2
				c0,3.1,2.2,3.7,3.3,3.7c1.1,0,3.3-0.6,3.3-3.7v-16.2h8.3v27.1H504.6z"/>
			<path d="M536.3,318.3v-16.2c0-3.1-2.2-3.7-3.3-3.7s-3.3,0.6-3.3,3.7v16.2h-8.3v-27.1h8.1v2.2c1.7-1.7,4.1-2.5,6.3-2.5
				c2.6,0,4.6,0.9,6.1,2.3c2.3,2.3,2.7,4.9,2.7,7.8v17.3H536.3z"/>
		</g>
	</g>
	<g>
		<path d="M394.5,30.8c-20.2,0-37.1,15.8-38.4,36c0,0.1,0,0.3,0,0.4v187.1c0,3.7,3,6.7,6.7,6.7s6.7-3,6.7-6.7V145.1h50.1v109.2
			c0,3.7,3,6.7,6.7,6.7s6.7-3,6.7-6.7V67.2c0-0.1,0-0.3,0-0.4C431.6,46.6,414.7,30.8,394.5,30.8z M394.5,44.2
			c13.1,0,24.1,10.2,25,23.2v37.4h-50.1V67.5C370.5,54.4,381.4,44.2,394.5,44.2z M369.5,131.7v-13.4h50.1v13.4H369.5z"/>
		<path d="M516.5,110c11-8,18.2-20.9,18.2-35.4c0-24.1-19.6-43.8-43.8-43.8h-20.7c-3.7,0-6.7,3-6.7,6.7v74.1v142.7
			c0,3.7,3,6.7,6.7,6.7s6.7-3,6.7-6.7V145.1h53c0.9,3.1,1.3,6.3,1.3,9.7v99.5c0,3.7,3,6.7,6.7,6.7c3.7,0,6.7-3,6.7-6.7v-99.5
			C544.7,135.1,533.2,118.1,516.5,110z M477,44.2h14c16.7,0,30.3,13.6,30.3,30.3s-13.6,30.3-30.3,30.3h-14V44.2z M477,131.7v-13.4
			h14h3.8c11.4,0,21.5,5.2,28.2,13.4H477z"/>
		<g>
			<path d="M319.7,134.4c-7.2-11.9-17.2-21-28.7-25.8c10-8,16.4-20.3,16.4-34.1c0-24.1-19.6-43.8-43.8-43.8h-20.7
				c-3.7,0-6.7,3-6.7,6.7v74.1v142.7c0,3.7,3,6.7,6.7,6.7h29.5c32.8,0,59.6-33.7,59.6-75.2v-5.7c0-16.5-4.3-31.8-11.4-44.2
				C320.3,135.3,320,134.9,319.7,134.4z M272.4,118.3c10.8,0,20.8,5,28.7,13.4h-51.5v-13.4h14H272.4z M249.6,44.2h14
				c16.7,0,30.3,13.6,30.3,30.3s-13.6,30.3-30.3,30.3h-14V44.2z M318.6,185.8c0,34.1-20.7,61.8-46.2,61.8h-22.8V145.1h60.9
				c5.1,9.9,8.1,22,8.1,34.9V185.8z"/>
		</g>
		<g>
			<path d="M73,30.8c-3.7,0-6.7,3-6.7,6.7v67.4H16.2V37.5c0-3.7-3-6.7-6.7-6.7s-6.7,3-6.7,6.7v187.1c0,0.1,0,0.3,0,0.4
				c1.3,20.2,18.2,36,38.4,36c20.2,0,37.1-15.8,38.4-36c0-0.1,0-0.3,0-0.4V37.5C79.7,33.8,76.7,30.8,73,30.8z M66.3,118.3v13.4H16.2
				v-13.4H66.3z M41.2,247.6c-13.1,0-24.1-10.2-25-23.2v-79.2h50.1v79.2C65.3,237.4,54.4,247.6,41.2,247.6z"/>
			<path d="M19,9.5C19,4.3,14.8,0,9.5,0C4.3,0,0,4.3,0,9.5C0,14.8,4.3,19,9.5,19C14.8,19,19,14.8,19,9.5z"/>
			<path d="M73,0c-5.2,0-9.5,4.3-9.5,9.5c0,5.2,4.3,9.5,9.5,9.5s9.5-4.3,9.5-9.5C82.5,4.3,78.2,0,73,0z"/>
		</g>
		<path d="M201.6,31.4c-2.4-1.1-5.3-0.6-7.2,1.2l-36.5,33l-36.5-33c-2-1.8-4.8-2.2-7.2-1.2c-2.4,1.1-4,3.5-4,6.1v216.8
			c0,3.7,3,6.7,6.7,6.7s6.7-3,6.7-6.7V153.5l29.8,26.9c1.3,1.2,2.9,1.7,4.5,1.7s3.2-0.6,4.5-1.7l29.8-26.9v100.8
			c0,3.7,3,6.7,6.7,6.7s6.7-3,6.7-6.7V37.5C205.6,34.9,204.1,32.5,201.6,31.4z M192.2,135.5l-34.3,31l-34.3-31V120l34.3,31l34.3-31
			V135.5z M192.2,101.9l-34.3,31l-34.3-31V52.6l29.8,26.9c2.6,2.3,6.4,2.3,9,0l29.8-26.9V101.9z"/>
	</g>
</g>
</svg>
